<svg xmlns="http://www.w3.org/2000/svg" width="24" height="24" viewBox="0 0 48 48">
	<path fill="#45413c" d="M12.5 45.5a11.5 1.5 0 1 0 23 0a11.5 1.5 0 1 0-23 0" opacity="0.15" />
	<path fill="#00b8f0" d="M4.33 22.83a19.67 19.67 0 1 0 39.34 0a19.67 19.67 0 1 0-39.34 0" />
	<path fill="#009fd9" d="M41.34 13.55a18.12 18.12 0 1 1-34.68 0a19.67 19.67 0 1 0 34.68 0" />
	<path fill="none" stroke="#45413c" stroke-linecap="round" stroke-linejoin="round" d="M4.33 22.83a19.67 19.67 0 1 0 39.34 0a19.67 19.67 0 1 0-39.34 0" />
	<path fill="#6dd627" d="m25.15 23.5l-1.06 2a.89.89 0 0 1-.24.3l-.85.71a1 1 0 0 0-.26 1.19l1.47 3.12a1 1 0 0 0 .67.55l.63.15a1 1 0 0 1 .73 1.23l-1.35 5.11a1 1 0 0 0 0 .46l.11.55a1 1 0 0 0 1.63.56l6.26-5.25a1 1 0 0 1 .46-.22l1.09-.2a1 1 0 0 0 .71-.53l2-4a1 1 0 0 0-.49-1.37l-3.21-1.43A1 1 0 0 1 33 26l-.71-1.35a1 1 0 0 0-.68-.52L26.24 23a1 1 0 0 0-1.09.5" />
	<path fill="#46b000" d="m26.62 39.45l5-4.18a17.88 17.88 0 0 1-6.45 1.63l-.26 1a1 1 0 0 0 0 .46l.11.55a1 1 0 0 0 1.6.54m8.52-6.2l.12-.23c-.35.28-.71.56-1.08.81h.25a1 1 0 0 0 .71-.58" />
	<path fill="none" stroke="#45413c" stroke-linecap="round" stroke-linejoin="round" d="m25.15 23.5l-1.06 2a.89.89 0 0 1-.24.3l-.85.71a1 1 0 0 0-.26 1.19l1.47 3.12a1 1 0 0 0 .67.55l.63.15a1 1 0 0 1 .73 1.23l-1.35 5.11a1 1 0 0 0 0 .46l.11.55a1 1 0 0 0 1.63.56l6.26-5.25a1 1 0 0 1 .46-.22l1.09-.2a1 1 0 0 0 .71-.53l2-4a1 1 0 0 0-.49-1.37l-3.21-1.43A1 1 0 0 1 33 26l-.71-1.35a1 1 0 0 0-.68-.52L26.24 23a1 1 0 0 0-1.09.5" />
	<path fill="#6dd627" stroke="#45413c" stroke-linecap="round" stroke-linejoin="round" d="m22.41 9.82l-2-1.15a1 1 0 0 1-.3-1.46l.15-.21a1 1 0 0 0-.49-1.54l-2.49-.82a1 1 0 0 0-.7 0A19.63 19.63 0 0 0 11 8.07a1 1 0 0 0-.34.68l-.42 5.33a1 1 0 0 0 .19.66l3.9 5.26a1 1 0 0 0 .45.34l5.06 1.95l.15.07L22.6 24a1 1 0 0 0 .84.08l1-.35l-2.65-2.32a.91.91 0 0 0-.23-.15l-3.32-1.61a1 1 0 0 1-.55-.74l-.13-.74A1 1 0 0 1 18.61 17l3.3.27a1 1 0 0 0 .84-.35L26.09 13a1 1 0 0 1 .62-.34l2.47-.33a1 1 0 0 0 .86-1v-.76a1 1 0 0 0-.54-.89l-3.93-2a1 1 0 0 0-1.41.6l-.3 1a1 1 0 0 1-1.45.54M24 3.17a19.29 19.29 0 0 0-2.42.16l7 3a1 1 0 0 0 .42.07l3.16-.25l.46-1A19.53 19.53 0 0 0 24 3.17" />
	<path fill="#6dd627" stroke="#45413c" stroke-linecap="round" stroke-linejoin="round" d="M28.75 19L26 18.1a.49.49 0 0 0-.62.27l-.64 1.52a.5.5 0 0 0 .52.69l2.13-.28a.51.51 0 0 0 .3-.15Z" />
</svg>