<svg xmlns="http://www.w3.org/2000/svg" width="24" height="24" viewBox="0 0 32 32">
	<g fill="#999999">
		<path d="M15.84 19.345h.07c1.5.04 2.7 1.26 2.7 2.76c0 1.28-.87 2.35-2.05 2.67v1.12c0 .4-.32.72-.72.72s-.72-.32-.72-.72v-1.12a2.77 2.77 0 0 1-2.05-2.67c0-.4.32-.72.72-.72s.72.32.72.72c0 .74.59 1.33 1.32 1.33s1.33-.6 1.33-1.33s-.6-1.33-1.33-1.33h-.07a2.765 2.765 0 0 1-2.69-2.76c0-1.28.87-2.35 2.05-2.67v-1.12c0-.4.32-.72.72-.72s.72.32.72.72v1.12c1.18.32 2.05 1.39 2.05 2.67c0 .4-.32.72-.72.72s-.72-.32-.72-.72c0-.73-.6-1.33-1.33-1.33s-1.33.6-1.33 1.33s.6 1.33 1.33 1.33" />
		<path d="m10.532 5.1l2.786 3.26l-.301.336C7.283 9.982 3 15.103 3 21.225c0 5.382 4.368 9.75 9.75 9.75h6.17c5.382 0 9.75-4.367 9.75-9.749c.01-6.123-4.273-11.244-10.007-12.53a1.1 1.1 0 0 0-.11-.615l2.37-2.713l.153-.236a1.956 1.956 0 0 0-2.892-2.423l-.843-1a2.02 2.02 0 0 0-3.008-.005l-.883.986a1.96 1.96 0 0 0-2.918 2.41m3.799 1.385l-1.696-1.96a1.98 1.98 0 0 0 2.365-.5l.8-1.038l.888 1.052a1.97 1.97 0 0 0 2.3.513L17.3 6.485zM5 21.225c0-5.988 4.852-10.84 10.84-10.84s10.84 4.852 10.83 10.838v.002a7.753 7.753 0 0 1-7.75 7.75h-6.17A7.753 7.753 0 0 1 5 21.225" />
	</g>
</svg>