<svg width="18" height="18" viewBox="0 0 24 24" fill="none" xmlns="http://www.w3.org/2000/svg"><path d="M10.7722 0C4.83576 0 0 4.83411 0 10.7685C0 16.7029 4.83576 21.5465 10.7722 21.5465C13.3078 21.5465 15.6398 20.6582 17.4829 19.1833L21.9699 23.6664C22.1964 23.8834 22.4988 24.0031 22.8125 23.9999C23.1261 23.9967 23.426 23.8709 23.648 23.6493C23.8699 23.4278 23.9963 23.1282 23.9999 22.8146C24.0036 22.5011 23.8842 22.1986 23.6675 21.9719L19.1804 17.4864C20.657 15.6411 21.5467 13.3062 21.5467 10.7685C21.5467 4.83411 16.7086 0 10.7722 0ZM10.7722 2.39356C15.4146 2.39356 19.15 6.1277 19.15 10.7685C19.15 15.4094 15.4146 19.1529 10.7722 19.1529C6.12976 19.1529 2.39434 15.4094 2.39434 10.7685C2.39434 6.1277 6.12976 2.39356 10.7722 2.39356Z" fill="white"></path></svg>