<svg xmlns="http://www.w3.org/2000/svg" width="24" height="24" viewBox="0 0 32 32">
	<g fill="none">
		<g filter="url(#f2280id6)">
			<path fill="url(#f2280id0)" d="m18.605 3.744l2.203 4.62c.34.686.963 1.169 1.685 1.276l4.928.696c2.538.376 3.496 3.101 1.527 5.086l-3.453 3.562a2.49 2.49 0 0 0-.682 2.187l.776 5.063c.441 2.626-1.77 4.49-4.008 3.29l-4.536-2.413a2.144 2.144 0 0 0-2.006 0l-4.536 2.412c-2.238 1.19-4.586-.617-3.93-3.351l.766-4.953a2.49 2.49 0 0 0-.682-2.187l-3.521-3.688c-1.985-1.961-1.011-4.632 1.527-5.007L9.41 9.64c.723-.107 1.552-.579 1.883-1.276l2.248-4.62c1.144-2.325 3.93-2.325 5.065 0" />
			<path fill="url(#f2280id1)" d="m18.605 3.744l2.203 4.62c.34.686.963 1.169 1.685 1.276l4.928.696c2.538.376 3.496 3.101 1.527 5.086l-3.453 3.562a2.49 2.49 0 0 0-.682 2.187l.776 5.063c.441 2.626-1.77 4.49-4.008 3.29l-4.536-2.413a2.144 2.144 0 0 0-2.006 0l-4.536 2.412c-2.238 1.19-4.586-.617-3.93-3.351l.766-4.953a2.49 2.49 0 0 0-.682-2.187l-3.521-3.688c-1.985-1.961-1.011-4.632 1.527-5.007L9.41 9.64c.723-.107 1.552-.579 1.883-1.276l2.248-4.62c1.144-2.325 3.93-2.325 5.065 0" />
		</g>
		<path fill="url(#f2280id2)" d="m18.605 3.744l2.203 4.62c.34.686.963 1.169 1.685 1.276l4.928.696c2.538.376 3.496 3.101 1.527 5.086l-3.453 3.562a2.49 2.49 0 0 0-.682 2.187l.776 5.063c.441 2.626-1.77 4.49-4.008 3.29l-4.536-2.413a2.144 2.144 0 0 0-2.006 0l-4.536 2.412c-2.238 1.19-4.586-.617-3.93-3.351l.766-4.953a2.49 2.49 0 0 0-.682-2.187l-3.521-3.688c-1.985-1.961-1.011-4.632 1.527-5.007L9.41 9.64c.723-.107 1.552-.579 1.883-1.276l2.248-4.62c1.144-2.325 3.93-2.325 5.065 0" />
		<path fill="url(#f2280id3)" d="m18.605 3.744l2.203 4.62c.34.686.963 1.169 1.685 1.276l4.928.696c2.538.376 3.496 3.101 1.527 5.086l-3.453 3.562a2.49 2.49 0 0 0-.682 2.187l.776 5.063c.441 2.626-1.77 4.49-4.008 3.29l-4.536-2.413a2.144 2.144 0 0 0-2.006 0l-4.536 2.412c-2.238 1.19-4.586-.617-3.93-3.351l.766-4.953a2.49 2.49 0 0 0-.682-2.187l-3.521-3.688c-1.985-1.961-1.011-4.632 1.527-5.007L9.41 9.64c.723-.107 1.552-.579 1.883-1.276l2.248-4.62c1.144-2.325 3.93-2.325 5.065 0" />
		<path fill="url(#f2280id4)" d="m18.605 3.744l2.203 4.62c.34.686.963 1.169 1.685 1.276l4.928.696c2.538.376 3.496 3.101 1.527 5.086l-3.453 3.562a2.49 2.49 0 0 0-.682 2.187l.776 5.063c.441 2.626-1.77 4.49-4.008 3.29l-4.536-2.413a2.144 2.144 0 0 0-2.006 0l-4.536 2.412c-2.238 1.19-4.586-.617-3.93-3.351l.766-4.953a2.49 2.49 0 0 0-.682-2.187l-3.521-3.688c-1.985-1.961-1.011-4.632 1.527-5.007L9.41 9.64c.723-.107 1.552-.579 1.883-1.276l2.248-4.62c1.144-2.325 3.93-2.325 5.065 0" />
		<path fill="url(#f2280id5)" d="m18.605 3.744l2.203 4.62c.34.686.963 1.169 1.685 1.276l4.928.696c2.538.376 3.496 3.101 1.527 5.086l-3.453 3.562a2.49 2.49 0 0 0-.682 2.187l.776 5.063c.441 2.626-1.77 4.49-4.008 3.29l-4.536-2.413a2.144 2.144 0 0 0-2.006 0l-4.536 2.412c-2.238 1.19-4.586-.617-3.93-3.351l.766-4.953a2.49 2.49 0 0 0-.682-2.187l-3.521-3.688c-1.985-1.961-1.011-4.632 1.527-5.007L9.41 9.64c.723-.107 1.552-.579 1.883-1.276l2.248-4.62c1.144-2.325 3.93-2.325 5.065 0" />
		<defs>
			<radialGradient id="f2280id0" cx="0" cy="0" r="1" gradientTransform="rotate(132.939 10.318 9.828)scale(19.9803 19.7731)" gradientUnits="userSpaceOnUse">
				<stop stop-color="#fac632" />
				<stop offset="1" stop-color="#f7c632" />
			</radialGradient>
			<radialGradient id="f2280id1" cx="0" cy="0" r="1" gradientTransform="matrix(0 13.9478 -13.9614 0 16.039 15.948)" gradientUnits="userSpaceOnUse">
				<stop stop-color="#ddba38" />
				<stop offset="1" stop-color="#ddba38" stop-opacity="0" />
			</radialGradient>
			<radialGradient id="f2280id2" cx="0" cy="0" r="1" gradientTransform="matrix(.62228 2.178 -7.26854 2.07673 7.06 10.082)" gradientUnits="userSpaceOnUse">
				<stop stop-color="#ddba38" />
				<stop offset="1" stop-color="#ddba38" stop-opacity="0" />
			</radialGradient>
			<radialGradient id="f2280id3" cx="0" cy="0" r="1" gradientTransform="matrix(3.77717 1.089 -1.09006 3.78086 2.077 11.52)" gradientUnits="userSpaceOnUse">
				<stop stop-color="#b5953a" />
				<stop offset="1" stop-color="#b5953a" stop-opacity="0" />
			</radialGradient>
			<radialGradient id="f2280id4" cx="0" cy="0" r="1" gradientTransform="matrix(1.47791 -2.41136 2.41371 1.47936 8.888 30.811)" gradientUnits="userSpaceOnUse">
				<stop stop-color="#c47e42" />
				<stop offset="1" stop-color="#c47e42" stop-opacity="0" />
			</radialGradient>
			<radialGradient id="f2280id5" cx="0" cy="0" r="1" gradientTransform="rotate(150.751 14.005 9.89)scale(2.2288 2.93061)" gradientUnits="userSpaceOnUse">
				<stop stop-color="#fff246" />
				<stop offset="1" stop-color="#fff246" stop-opacity="0" />
			</radialGradient>
			<filter id="f2280id6" width="30.673" height="29.645" x=".827" y="1.5" color-interpolation-filters="sRGB" filterUnits="userSpaceOnUse">
				<feFlood flood-opacity="0" result="BackgroundImageFix" />
				<feBlend in="SourceGraphic" in2="BackgroundImageFix" result="shape" />
				<feColorMatrix in="SourceAlpha" result="hardAlpha" values="0 0 0 0 0 0 0 0 0 0 0 0 0 0 0 0 0 0 127 0" />
				<feOffset dy="-.5" />
				<feGaussianBlur stdDeviation="1.5" />
				<feComposite in2="hardAlpha" k2="-1" k3="1" operator="arithmetic" />
				<feColorMatrix values="0 0 0 0 0.772549 0 0 0 0 0.494118 0 0 0 0 0.282353 0 0 0 1 0" />
				<feBlend in2="shape" result="effect1_innerShadow_18_14837" />
				<feColorMatrix in="SourceAlpha" result="hardAlpha" values="0 0 0 0 0 0 0 0 0 0 0 0 0 0 0 0 0 0 127 0" />
				<feOffset dx="-1.25" dy="1.25" />
				<feGaussianBlur stdDeviation=".75" />
				<feComposite in2="hardAlpha" k2="-1" k3="1" operator="arithmetic" />
				<feColorMatrix values="0 0 0 0 1 0 0 0 0 0.952941 0 0 0 0 0.286275 0 0 0 1 0" />
				<feBlend in2="effect1_innerShadow_18_14837" result="effect2_innerShadow_18_14837" />
				<feColorMatrix in="SourceAlpha" result="hardAlpha" values="0 0 0 0 0 0 0 0 0 0 0 0 0 0 0 0 0 0 127 0" />
				<feOffset dx="1.5" dy="-.5" />
				<feGaussianBlur stdDeviation=".75" />
				<feComposite in2="hardAlpha" k2="-1" k3="1" operator="arithmetic" />
				<feColorMatrix values="0 0 0 0 0.698039 0 0 0 0 0.537255 0 0 0 0 0.192157 0 0 0 1 0" />
				<feBlend in2="effect2_innerShadow_18_14837" result="effect3_innerShadow_18_14837" />
			</filter>
		</defs>
	</g>
</svg>